<?xml version="1.0" encoding="UTF-8"?>
<svg width="20px" height="20px" viewBox="0 0 20 20" version="1.1" xmlns="http://www.w3.org/2000/svg" xmlns:xlink="http://www.w3.org/1999/xlink">
    <!-- Generator: Sketch 52.5 (67469) - http://www.bohemiancoding.com/sketch -->
    <title>ic_facebook@2x</title>
    <desc>Created with Sketch.</desc>
    <g id="Page-1" stroke="none" stroke-width="1" fill="none" fill-rule="evenodd">
        <g id="home" transform="translate(-98.000000, -395.000000)" fill="#FEFEFE">
            <path d="M116.896191,395 L99.103809,395 C98.4941288,395 98,395.494129 98,396.103809 L98,413.896191 C98,414.505796 98.4941288,415.000075 99.103809,415.000075 L108.682668,415.000075 L108.682668,407.254978 L106.07624,407.254978 L106.07624,404.236551 L108.682668,404.236551 L108.682668,402.010573 C108.682668,399.427376 110.260373,398.02075 112.564809,398.02075 C113.668692,398.02075 114.617384,398.10288 114.893823,398.139598 L114.893823,400.839247 L113.295586,400.839996 C112.042354,400.839996 111.799636,401.435514 111.799636,402.309419 L111.799636,404.236551 L114.788613,404.236551 L114.399469,407.254978 L111.799636,407.254978 L111.799636,415.000075 L116.896191,415.000075 C117.505796,415.000075 118,414.505796 118,413.896191 L118,396.103809 C118,395.494129 117.505796,395 116.896191,395" id="ic_facebook"></path>
        </g>
    </g>
</svg>