<?xml version="1.0" encoding="UTF-8"?>
<svg width="150px" height="31px" viewBox="0 0 150 31" version="1.1" xmlns="http://www.w3.org/2000/svg" xmlns:xlink="http://www.w3.org/1999/xlink">
    <!-- Generator: Sketch 52.5 (67469) - http://www.bohemiancoding.com/sketch -->
    <title>@2xnana_logo</title>
    <desc>Created with Sketch.</desc>
    <g id="Page-1" stroke="none" stroke-width="1" fill="none" fill-rule="evenodd">
        <g id="home" transform="translate(-112.000000, -87.000000)" fill="#FFFFFF">
            <path d="M258.141811,102.156713 C256.213337,102.156713 254.433876,103.657689 254.433876,105.90978 C254.433876,107.86042 255.76754,109.510866 257.697256,109.661591 C256.659133,111.312036 255.321743,112.362091 253.690053,112.362091 C251.76158,112.362091 250.87247,111.461506 250.87247,109.811061 C250.87247,109.21067 251.021483,108.609024 251.169254,107.86042 L255.916553,87.2989391 L246.2717,87.2989391 L245.531603,90.6010853 L245.531603,90.1514207 C245.531603,88.35025 244.047684,87 240.040482,87 C228.318142,87 222.830746,99.9058779 222.830746,108.159359 L222.830746,108.609024 L222.830746,109.21067 C221.792624,111.011841 220.604247,112.063152 218.378989,112.063152 C216.450515,112.063152 215.710418,111.161311 215.710418,109.510866 C215.710418,107.86042 216.302744,105.457603 217.342109,102.307439 C218.378989,99.1547621 218.973799,96.453006 218.973799,93.9032316 C218.973799,89.0988537 215.710418,87.1494695 211.406432,87.1494695 C209.477959,87.1494695 206.51012,87.5991342 203.541041,90.4503598 L204.283621,87.2989391 L194.638768,87.2989391 L190.040482,106.809109 C189.001118,109.811061 187.073886,112.362091 184.550602,112.362091 C182.769899,112.362091 181.731777,111.461506 181.731777,109.811061 C181.731777,109.21067 181.88079,108.609024 182.027319,107.86042 L186.923631,87.2989391 L177.281262,87.2989391 L176.538681,90.4503598 L176.538681,90.1514207 C176.538681,88.35025 174.906991,87 171.197814,87 C159.327704,87 153.839066,99.9058779 153.839066,108.159359 L153.839066,108.460811 C152.651931,110.712902 151.464796,112.063152 149.090525,112.063152 C146.865268,112.063152 146.2717,110.861116 146.2717,109.510866 C146.2717,107.86042 146.865268,105.308134 147.904632,102.156713 C148.942754,99.0052925 149.536322,96.3035365 149.536322,93.9032316 C149.536322,89.0988537 146.2717,87 142.116727,87 C139.891469,87 137.072644,87.4496646 134.252577,90.4503598 C133.808022,90.9025365 133.51248,91.2014756 133.214454,91.5029267 C132.769899,91.9513353 132.473116,92.2515304 132.325345,92.5529816 C131.879548,88.9493842 129.357507,87 125.64833,87 C122.086924,87 116.15249,88.35025 112.147771,98.1034511 L112.295542,98.1034511 C112.147771,98.5556279 112,99.0052925 112,99.4549572 C112,101.408109 113.630448,103.208024 115.855706,103.208024 C118.082205,103.208024 119.712654,101.408109 119.712654,99.4549572 C119.712654,97.5043169 118.082205,95.7044023 116.15249,95.5536767 C117.191854,93.7550181 118.674531,92.4035121 120.455234,92.4035121 C122.38495,92.4035121 123.275301,93.3015853 123.275301,95.102756 C123.275301,95.5536767 123.126288,96.154067 122.977276,96.9051828 L118.082205,117.464152 L127.874829,117.464152 L128.614926,114.312731 L129.209736,111.760445 L132.473116,98.1034511 C133.51248,95.102756 135.291941,92.5529816 137.66497,92.5529816 C139.299143,92.5529816 140.040482,93.7550181 140.040482,95.7044023 C140.040482,97.6550425 139.595927,100.056603 138.555321,103.208024 C137.51844,106.359445 137.072644,109.061201 137.072644,111.011841 C137.072644,114.462201 139.15013,117.913817 144.936794,117.913817 C147.755619,117.913817 151.168012,117.165213 154.581647,112.511561 C155.916553,116.263372 159.327704,117.913817 162.741339,117.913817 C167.488638,117.913817 170.604247,114.913122 172.829505,112.362091 C173.274059,115.963176 175.64833,117.913817 179.358748,117.913817 C181.731777,117.913817 185.293183,117.313426 188.408792,114.163262 L187.517199,117.464152 L197.311064,117.464152 L201.909351,98.1034511 C202.948715,95.102756 204.729418,92.5529816 207.102446,92.5529816 C208.735378,92.5529816 209.477959,93.6017804 209.477959,95.5536767 C209.477959,97.5043169 209.032162,100.056603 207.992798,103.208024 C206.954675,106.359445 206.51012,108.909219 206.51012,111.011841 C206.51012,114.462201 208.587607,117.763091 214.375512,117.763091 C217.193096,117.763091 220.604247,117.165213 223.719856,112.962481 C225.054762,116.564823 228.318142,117.763091 231.731777,117.763091 C236.630572,117.763091 239.595927,115.065103 241.819943,112.212622 C242.268223,115.963176 244.789023,117.763091 248.496958,117.763091 C251.909351,117.763091 257.697256,116.564823 261.406432,108.011146 C261.850987,107.258774 262,106.508914 262,105.90978 C262,103.657689 260.36831,102.156713 258.141811,102.156713 L258.141811,102.156713 Z M172.681734,106.65964 C171.939153,110.260725 169.120328,112.063152 167.191854,112.063152 C166.598286,112.063152 165.856948,111.91117 165.115609,111.461506 C164.225258,111.011841 163.779461,109.661591 163.779461,107.258774 C163.779461,101.707049 167.340867,90.7518109 173.126288,90.7518109 C175.352788,90.7518109 175.946355,92.4035121 175.946355,93.0026463 L172.681734,106.65964 Z M241.673414,106.65964 C240.932075,110.260725 238.11325,112.063152 236.183534,112.063152 C235.589966,112.063152 234.847386,111.91117 234.107289,111.461506 C233.216938,111.011841 232.769899,109.661591 232.769899,107.258774 C232.769899,101.707049 236.630572,90.7518109 242.117968,90.7518109 C244.34571,90.7518109 244.938036,92.4035121 244.938036,93.0026463 L241.673414,106.65964 Z" id="nana_logo"></path>
        </g>
    </g>
</svg>