<?xml version="1.0" encoding="UTF-8"?>
<svg width="23px" height="19px" viewBox="0 0 23 19" version="1.1" xmlns="http://www.w3.org/2000/svg" xmlns:xlink="http://www.w3.org/1999/xlink">
    <!-- Generator: Sketch 52.5 (67469) - http://www.bohemiancoding.com/sketch -->
    <title>@2xic_twitter</title>
    <desc>Created with Sketch.</desc>
    <g id="Page-1" stroke="none" stroke-width="1" fill="none" fill-rule="evenodd">
        <g id="home" transform="translate(-98.000000, -331.000000)" fill="#FFFFFF">
            <path d="M105.233408,349.692376 C113.912964,349.692376 118.659428,342.501564 118.659428,336.266264 C118.659428,336.061932 118.655288,335.85852 118.645996,335.656212 C119.567284,334.990224 120.368144,334.159188 121,333.212968 C120.15452,333.588512 119.244548,333.841696 118.29014,333.955868 C119.264328,333.37176 120.01238,332.447344 120.365108,331.345552 C119.453112,331.886052 118.443688,332.27926 117.368852,332.49086 C116.507732,331.573712 115.281372,331 113.924372,331 C111.318196,331 109.204864,333.113332 109.204864,335.718496 C109.204864,336.088888 109.246356,336.448884 109.327316,336.794436 C105.405632,336.59728 101.92794,334.719376 99.600892,331.864248 C99.195264,332.561424 98.961768,333.37176 98.961768,334.236008 C98.961768,335.873148 99.79492,337.318376 101.061668,338.163856 C100.287672,338.140028 99.560412,337.927324 98.924416,337.573492 C98.923404,337.593272 98.923404,337.61296 98.923404,337.63366 C98.923404,339.919308 100.550148,341.827204 102.709204,342.25988 C102.312868,342.367704 101.895832,342.425848 101.465272,342.425848 C101.161212,342.425848 100.865524,342.395764 100.578208,342.340748 C101.178876,344.215524 102.920804,345.579792 104.98648,345.618248 C103.371052,346.883984 101.336564,347.6382 99.125712,347.6382 C98.744924,347.6382 98.36938,347.616396 98,347.572788 C100.088492,348.911204 102.568076,349.692376 105.233408,349.692376" id="ic_twitter"></path>
        </g>
    </g>
</svg>